<svg xmlns="http://www.w3.org/2000/svg" width="16" height="16" fill="none"><path fill="#686370" fill-opacity=".8" fill-rule="evenodd" d="M0 .501A.5.5 0 0 1 .854.147L3.08 2.375l-.042.038-.876.877a.625.625 0 1 0 .883.884l.877-.877.038-.042 1.312 1.312-.042.039-1.038 1.037a.625.625 0 0 0 .884.884L6.115 5.49l.038-.043L7.467 6.76l-.043.04-.876.875a.625.625 0 1 0 .884.884l.876-.876.039-.042 1.312 1.312-.042.038-1.038 1.038a.625.625 0 0 0 .883.884L10.5 9.874l.039-.042 1.312 1.312-.043.039-.876.876a.625.625 0 1 0 .884.884l.876-.876.039-.043 2.416 2.416a.5.5 0 0 1-.354.854H.5a.5.5 0 0 1-.5-.5zm3.25 8.25a.5.5 0 0 1 .854-.354l2.792 2.793a.5.5 0 0 1-.353.854H3.75a.5.5 0 0 1-.5-.5z" clip-rule="evenodd"/></svg>