<svg xmlns="http://www.w3.org/2000/svg" width="16" height="16" fill="none"><path fill="#686370" fill-opacity=".8" d="M1.333 12.667v-4q0-.45.183-.817Q1.7 7.484 2 7.2V5.333q0-.833.583-1.416A1.93 1.93 0 0 1 4 3.333h2.666q.384 0 .717.142T8 3.867q.283-.25.616-.392.334-.14.717-.142H12q.832 0 1.416.584.585.583.584 1.416V7.2q.3.284.483.65a1.8 1.8 0 0 1 .183.817v4h-1.333v-1.334H2.666v1.334zm7.333-6h4V5.333a.64.64 0 0 0-.192-.474.65.65 0 0 0-.474-.192H9.333a.64.64 0 0 0-.475.192.65.65 0 0 0-.192.474zm-5.333 0h4V5.333a.64.64 0 0 0-.192-.474.65.65 0 0 0-.475-.192H4a.64.64 0 0 0-.475.192.65.65 0 0 0-.192.474zM2.666 10h10.667V8.667a.64.64 0 0 0-.192-.475.65.65 0 0 0-.475-.192H3.333a.64.64 0 0 0-.475.192.65.65 0 0 0-.192.475z"/></svg>