<svg xmlns="http://www.w3.org/2000/svg" width="32" height="32" fill="none"><rect width="32" height="32" fill="#1e5eff" fill-opacity=".08" rx="8"/><path stroke="#1e5eff" stroke-width="1.5" d="M9 16.76c0-1.358 0-2.037.274-2.634.275-.596.79-1.038 1.821-1.922l1-.857C13.96 9.75 14.89 8.95 16 8.95s2.041.799 3.905 2.396l1 .857c1.03.884 1.546 1.326 1.82 1.922.275.597.275 1.276.275 2.634V21c0 1.886 0 2.828-.586 3.414S20.886 25 19 25h-6c-1.886 0-2.828 0-3.414-.586S9 22.886 9 21z"/><path stroke="#1e5eff" stroke-linecap="round" stroke-linejoin="round" stroke-width="1.5" d="M18.5 25v-5a1 1 0 0 0-1-1h-3a1 1 0 0 0-1 1v5"/></svg>