<svg width="25" height="25" viewBox="0 0 25 25" fill="none" xmlns="http://www.w3.org/2000/svg">
<path d="M21.0934 19.1418H3.90592C3.33063 19.1418 2.86426 19.6082 2.86426 20.1835V21.2252C2.86426 21.8005 3.33063 22.2668 3.90592 22.2668H21.0934C21.6687 22.2668 22.1351 21.8005 22.1351 21.2252V20.1835C22.1351 19.6082 21.6687 19.1418 21.0934 19.1418Z" stroke="#1E5EFF" stroke-width="1.5" stroke-linecap="round" stroke-linejoin="round"/>
<path d="M5.46842 10.2855V19.1501M19.5309 10.2855V19.1501M15.1038 10.2855V19.1501M9.89551 10.2855V19.1501M11.4997 3.28133L3.40592 7.70841C3.242 7.7981 3.10522 7.93023 3.00992 8.09096C2.91462 8.25169 2.86431 8.43509 2.86426 8.62195V9.66049C2.86426 9.82625 2.93011 9.98522 3.04732 10.1024C3.16453 10.2196 3.3235 10.2855 3.48926 10.2855H21.5101C21.6759 10.2855 21.8348 10.2196 21.952 10.1024C22.0692 9.98522 22.1351 9.82625 22.1351 9.66049V8.62195C22.135 8.43509 22.0847 8.25169 21.9894 8.09096C21.8941 7.93023 21.7573 7.7981 21.5934 7.70841L13.4997 3.28133C13.1931 3.11356 12.8492 3.02563 12.4997 3.02563C12.1502 3.02563 11.8063 3.11356 11.4997 3.28133Z" stroke="#1E5EFF" stroke-width="1.5" stroke-linecap="round" stroke-linejoin="round"/>
</svg>
