<svg xmlns="http://www.w3.org/2000/svg" width="40" height="40" fill="none"><rect width="40" height="40" fill="#1e5eff" fill-opacity=".08" rx="8"/><path fill="#1e5eff" d="M10 27v-6q0-.675.275-1.225T11 18.8V16q0-1.25.875-2.125A2.9 2.9 0 0 1 14 13h4q.575 0 1.075.213T20 13.8q.425-.375.925-.587A2.7 2.7 0 0 1 22 13h4q1.25 0 2.125.875T29 16v2.8q.45.425.725.975T30 21v6h-2v-2H12v2zm11-9h6v-2a.97.97 0 0 0-.288-.712A.97.97 0 0 0 26 15h-4a.97.97 0 0 0-.712.288A.97.97 0 0 0 21 16zm-8 0h6v-2a.97.97 0 0 0-.288-.712A.97.97 0 0 0 18 15h-4a.97.97 0 0 0-.712.288A.97.97 0 0 0 13 16zm-1 5h16v-2a.97.97 0 0 0-.288-.712A.97.97 0 0 0 27 20H13a.97.97 0 0 0-.712.288A.97.97 0 0 0 12 21z"/></svg>