<svg width="20" height="24" viewBox="0 0 20 24" fill="none" xmlns="http://www.w3.org/2000/svg">
<path d="M11.513 20.5822H7.11282C6.99202 20.5862 6.89212 20.6777 6.87762 20.7978C6.87282 20.8892 6.87282 20.9808 6.87762 21.0722C6.87762 22.9582 8.91932 24.137 10.5526 23.194C11.3107 22.7563 11.7776 21.9475 11.7776 21.0722C11.7825 20.9808 11.7825 20.8892 11.7776 20.7978C11.7622 20.6662 11.645 20.5707 11.513 20.5822Z" fill="#443E4D"/>
<path d="M12.2481 4.90223C12.2454 4.31963 12.3621 3.74263 12.5911 3.20683C12.0224 2.90843 11.4108 2.70013 10.7781 2.58943V1.47223C10.7781 0.340627 9.55305 -0.366673 8.57306 0.199127C8.11826 0.461727 7.83805 0.947027 7.83805 1.47223V2.59923C6.82125 2.79143 5.86425 3.22123 5.04505 3.85363C2.92506 5.59783 1.71636 8.21373 1.76206 10.9586V11.7034C1.76126 14.2023 1.17386 16.6661 0.0470551 18.8966C-0.0668449 19.1405 0.0328553 19.4307 0.272455 19.5532C0.340155 19.5845 0.413555 19.6012 0.488055 19.6022H18.1281C18.3987 19.6022 18.6181 19.3828 18.6181 19.1122C18.6181 19.0376 18.6014 18.9639 18.5691 18.8966C17.4424 16.6661 16.8549 14.2023 16.8541 11.7034V10.9586C16.8576 10.4036 16.8116 9.84933 16.7169 9.30243H16.6581C14.2241 9.30783 12.2481 7.33623 12.2481 4.90223Z" fill="#443E4D"/>
<path d="M13.7183 4.90225C13.7183 7.16545 16.1683 8.57996 18.1283 7.44836C19.038 6.92316 19.5983 5.95265 19.5983 4.90225C19.5983 2.63905 17.1483 1.22455 15.1883 2.35615C14.2787 2.88135 13.7183 3.85185 13.7183 4.90225Z" fill="#D43131"/>
</svg>
