<svg width="25" height="25" viewBox="0 0 25 25" fill="none" xmlns="http://www.w3.org/2000/svg">
<path d="M22.9163 12.5001C22.9163 8.57196 22.9163 6.60737 21.6955 5.38758C20.4747 4.16779 18.5111 4.16675 14.583 4.16675H10.4163C6.48822 4.16675 4.52363 4.16675 3.30384 5.38758C2.08405 6.60841 2.08301 8.57196 2.08301 12.5001C2.08301 16.4282 2.08301 18.3928 3.30384 19.6126C4.52467 20.8324 6.48822 20.8334 10.4163 20.8334H14.583C18.5111 20.8334 20.4757 20.8334 21.6955 19.6126C22.3768 18.9324 22.6778 18.0209 22.8101 16.6667M10.4163 16.6667H6.24967M14.583 16.6667H13.0205M2.08301 10.4167H7.29134M22.9163 10.4167H11.458" stroke="#06C270" stroke-width="1.5" stroke-linecap="round"/>
</svg>
