<svg width="14" height="20" viewBox="0 0 14 20" fill="none" xmlns="http://www.w3.org/2000/svg">
<path d="M6.53516 3.79297L2.43359 5.59766C2.22969 5.69281 2.06449 5.83978 1.93799 6.03857C1.81266 6.23551 1.75 6.44401 1.75 6.66406V9.42578C1.75 11.0444 2.24902 12.5221 3.24707 13.8589C4.24998 15.2022 5.50096 16.0578 7 16.4258C8.49904 16.0578 9.75002 15.2022 10.7529 13.8589C11.751 12.5221 12.25 11.0444 12.25 9.42578V6.66406C12.25 6.44401 12.1873 6.23551 12.062 6.03857C11.9355 5.83978 11.7703 5.69281 11.5664 5.59766L7.46484 3.79297C7.15495 3.65211 6.84505 3.65211 6.53516 3.79297ZM5.41406 12.5156L3.91016 10.9844C3.80078 10.875 3.74609 10.7417 3.74609 10.5845C3.74609 10.4272 3.80078 10.2871 3.91016 10.1641C4.01953 10.0547 4.15625 10 4.32031 10C4.48438 10 4.62109 10.0547 4.73047 10.1641L5.82422 11.2578L9.26953 7.83984C9.37891 7.73047 9.51562 7.67578 9.67969 7.67578C9.84375 7.67578 9.98047 7.73047 10.0898 7.83984C10.1992 7.94922 10.2539 8.08594 10.2539 8.25C10.2539 8.41406 10.1992 8.55078 10.0898 8.66016L6.23438 12.5156C6.125 12.625 5.9917 12.6797 5.83447 12.6797C5.67725 12.6797 5.53711 12.625 5.41406 12.5156Z" fill="white"/>
</svg>
