<svg width="20" height="20" viewBox="0 0 20 20" fill="none" xmlns="http://www.w3.org/2000/svg">
<path d="M9.16228 3.9V7.13333C9.16229 7.40106 9.10942 7.66615 9.00671 7.91339C8.90401 8.16063 8.75349 8.38515 8.56379 8.57407C8.37409 8.76299 8.14896 8.91259 7.9013 9.01429C7.65364 9.11598 7.38834 9.16776 7.12062 9.16667H3.90395C3.63695 9.16829 3.37237 9.11598 3.12608 9.01288C2.87978 8.90978 2.65684 8.75801 2.47062 8.56667C2.28155 8.37917 2.13182 8.15581 2.03022 7.90968C1.92862 7.66354 1.87719 7.3996 1.87895 7.13333V3.90833C1.87895 3.3705 2.09203 2.85457 2.47155 2.47349C2.85107 2.0924 3.36612 1.8772 3.90395 1.875H7.12895C7.39567 1.87526 7.65969 1.92842 7.90572 2.03141C8.15176 2.1344 8.37492 2.28517 8.56228 2.475C8.75186 2.66082 8.90254 2.88252 9.00556 3.12717C9.10857 3.37183 9.16185 3.63454 9.16228 3.9ZM18.1206 3.90833V7.13333C18.1163 7.66983 17.9018 8.18326 17.5232 8.56341C17.1446 8.94356 16.6321 9.16014 16.0956 9.16667H12.8623C12.3233 9.16337 11.8065 8.95129 11.4206 8.575C11.232 8.38541 11.0827 8.16048 10.9812 7.9131C10.8797 7.66572 10.8279 7.40074 10.8289 7.13333V3.90833C10.8283 3.64147 10.881 3.37718 10.9841 3.13102C11.0871 2.88485 11.2384 2.6618 11.4289 2.475C11.6163 2.28517 11.8395 2.1344 12.0855 2.03141C12.3315 1.92842 12.5956 1.87526 12.8623 1.875H16.0873C16.6252 1.87936 17.1399 2.09498 17.5203 2.47536C17.9006 2.85575 18.1163 3.37041 18.1206 3.90833ZM18.1206 12.8667V16.0917C18.1163 16.6282 17.9018 17.1416 17.5232 17.5217C17.1446 17.9019 16.6321 18.1185 16.0956 18.125H12.8623C12.3199 18.1305 11.7967 17.9242 11.4039 17.55C11.2146 17.361 11.0648 17.1361 10.9632 16.8886C10.8617 16.6411 10.8103 16.3759 10.8123 16.1083V12.8833C10.8116 12.6165 10.8643 12.3522 10.9674 12.106C11.0704 11.8599 11.2217 11.6368 11.4123 11.45C11.5996 11.2602 11.8228 11.1094 12.0688 11.0064C12.3149 10.9034 12.5789 10.8503 12.8456 10.85H16.0706C16.6085 10.8544 17.1232 11.07 17.5036 11.4504C17.884 11.8307 18.0996 12.3454 18.104 12.8833L18.1206 12.8667ZM9.16228 12.875V16.1C9.15573 16.6379 8.93799 17.1517 8.55605 17.5305C8.17411 17.9093 7.65856 18.1229 7.12062 18.125H3.90395C3.63771 18.1261 3.3739 18.0745 3.12771 17.9731C2.88153 17.8717 2.65786 17.7226 2.4696 17.5344C2.28134 17.3461 2.13222 17.1224 2.03085 16.8762C1.92947 16.6301 1.87785 16.3662 1.87895 16.1V12.875C1.8811 12.3371 2.09461 11.8215 2.47344 11.4396C2.85226 11.0576 3.36604 10.8399 3.90395 10.8333H7.12895C7.66912 10.8389 8.18602 11.054 8.57062 11.4333C8.95069 11.8168 9.16343 12.3351 9.16228 12.875Z" fill="#1E5EFF"/>
</svg>
