<svg xmlns="http://www.w3.org/2000/svg" width="14" height="14" fill="none"><path fill="#1e5eff" d="M10.09 3.664a.56.56 0 0 0-.41-.164q-.246 0-.41.164L5.988 6.973l.82.82 3.282-3.309a.54.54 0 0 0 .164-.4.62.62 0 0 0-.164-.42m2.488 0-5.77 5.77L4.786 7.41a.62.62 0 0 0-.424-.164.62.62 0 0 0-.423.164.56.56 0 0 0-.165.41q0 .246.164.41l2.461 2.434q.165.185.4.185a.58.58 0 0 0 .42-.185l6.18-6.18a.54.54 0 0 0 .165-.4.62.62 0 0 0-.165-.42h-.027a.54.54 0 0 0-.396-.164.54.54 0 0 0-.397.164M.656 8.23l2.434 2.434q.164.185.41.185t.41-.185l.41-.41L1.477 7.41a.56.56 0 0 0-.41-.164q-.247 0-.41.164a.56.56 0 0 0-.165.41q0 .246.164.41"/></svg>