<svg xmlns="http://www.w3.org/2000/svg" width="19" height="19" fill="none"><path fill="#f5a623" fill-rule="evenodd" d="M13.626.144c8.486-1.227 3.055 5.736.415 7.684 1.81 1.334 3.658 3.21 4.45 5.339 1.471 3.896-2.15 4.473-4.865 3.499-2.98-1.01-5.62-3.175-7.354-5.7a5.5 5.5 0 0 1-1.509-.216c.98 2.67 1.396 5.41 1.132 7.647 0-4.509-2.226-8.982-5.431-12.698C-.668 4.401.5 3.427 1.52 4.69a29 29 0 0 1 1.885 2.85C4.5 3.86 9.93.65 13.626.144M12.42 6.78c1.66-.974 6.714-6.204 2-5.735-2.716.288-5.997 2.705-7.355 4.256 1.886-.216 3.81.578 5.355 1.48m-5.393-.324c1.282-.108 2.678.541 3.734 1.19a9.3 9.3 0 0 1-3.319.83c-1.735 0-2.074-1.876-.415-2.02m.716 4.365c1.51 1.623 3.583 3.21 5.809 3.788 1.282.324 2.715.18 2.187-1.588-.528-1.623-1.886-3.066-3.206-4.148a8 8 0 0 1-1.207.685 11.8 11.8 0 0 1-3.582 1.263" clip-rule="evenodd"/></svg>