<svg width="36" height="52" viewBox="0 0 36 52" fill="none" xmlns="http://www.w3.org/2000/svg">
<rect width="36" height="36" rx="18" fill="#1E5EFF" fill-opacity="0.16"/>
<path d="M19.5 22V27H16.5V22H19.5ZM18 10.9512C19.1097 10.9512 20.0412 11.7498 21.9043 13.3467L22.9043 14.2041C23.9351 15.0876 24.4511 15.5293 24.7256 16.126C25 16.7227 25 17.402 25 18.7598V23C25 24.8856 24.9998 25.8283 24.4141 26.4141C23.8825 26.9456 23.0571 26.9915 21.5 26.9961V22C21.5 20.8954 20.6046 20 19.5 20H16.5C15.3954 20 14.5 20.8954 14.5 22V26.9961C12.9429 26.9915 12.1175 26.9456 11.5859 26.4141C11.0002 25.8283 11 24.8856 11 23V18.7598C11 17.402 11 16.7227 11.2744 16.126C11.5489 15.5293 12.0649 15.0876 13.0957 14.2041L14.0957 13.3467C15.9588 11.7498 16.8903 10.9512 18 10.9512Z" fill="#194ED4"/>
<path d="M2.3283 48V39.2727H3.38512V43.1591H8.03853V39.2727H9.09535V48H8.03853V44.0966H3.38512V48H2.3283ZM13.7338 48.1364C13.1429 48.1364 12.6245 47.9957 12.1784 47.7145C11.7353 47.4332 11.3887 47.0398 11.1387 46.5341C10.8915 46.0284 10.7679 45.4375 10.7679 44.7614C10.7679 44.0795 10.8915 43.4844 11.1387 42.9759C11.3887 42.4673 11.7353 42.0724 12.1784 41.7912C12.6245 41.5099 13.1429 41.3693 13.7338 41.3693C14.3248 41.3693 14.8418 41.5099 15.285 41.7912C15.731 42.0724 16.0776 42.4673 16.3248 42.9759C16.5748 43.4844 16.6998 44.0795 16.6998 44.7614C16.6998 45.4375 16.5748 46.0284 16.3248 46.5341C16.0776 47.0398 15.731 47.4332 15.285 47.7145C14.8418 47.9957 14.3248 48.1364 13.7338 48.1364ZM13.7338 47.233C14.1827 47.233 14.552 47.1179 14.8418 46.8878C15.1316 46.6577 15.3461 46.3551 15.4853 45.9801C15.6245 45.6051 15.6941 45.1989 15.6941 44.7614C15.6941 44.3239 15.6245 43.9162 15.4853 43.5384C15.3461 43.1605 15.1316 42.8551 14.8418 42.6222C14.552 42.3892 14.1827 42.2727 13.7338 42.2727C13.285 42.2727 12.9157 42.3892 12.6259 42.6222C12.3361 42.8551 12.1216 43.1605 11.9824 43.5384C11.8432 43.9162 11.7736 44.3239 11.7736 44.7614C11.7736 45.1989 11.8432 45.6051 11.9824 45.9801C12.1216 46.3551 12.3361 46.6577 12.6259 46.8878C12.9157 47.1179 13.285 47.233 13.7338 47.233ZM18.2349 48V41.4545H19.2065V42.4773H19.2917C19.4281 42.1278 19.6483 41.8565 19.9522 41.6634C20.2562 41.4673 20.6213 41.3693 21.0474 41.3693C21.4792 41.3693 21.8386 41.4673 22.1255 41.6634C22.4153 41.8565 22.6412 42.1278 22.8031 42.4773H22.8713C23.0389 42.1392 23.2903 41.8707 23.6255 41.6719C23.9608 41.4702 24.3627 41.3693 24.8315 41.3693C25.4167 41.3693 25.8954 41.5526 26.2676 41.919C26.6397 42.2827 26.8258 42.8494 26.8258 43.6193V48H25.8201V43.6193C25.8201 43.1364 25.688 42.7912 25.4238 42.5838C25.1596 42.3764 24.8485 42.2727 24.4906 42.2727C24.0304 42.2727 23.6738 42.4119 23.421 42.6903C23.1681 42.9659 23.0417 43.3153 23.0417 43.7386V48H22.019V43.517C22.019 43.1449 21.8983 42.8452 21.6568 42.6179C21.4153 42.3878 21.1042 42.2727 20.7235 42.2727C20.4622 42.2727 20.2179 42.3423 19.9906 42.4815C19.7662 42.6207 19.5843 42.8139 19.4451 43.0611C19.3088 43.3054 19.2406 43.5881 19.2406 43.9091V48H18.2349ZM31.4089 48.1364C30.7782 48.1364 30.2342 47.9972 29.7768 47.7188C29.3223 47.4375 28.9714 47.0455 28.7243 46.5426C28.4799 46.0369 28.3578 45.4489 28.3578 44.7784C28.3578 44.108 28.4799 43.517 28.7243 43.0057C28.9714 42.4915 29.3152 42.0909 29.7555 41.804C30.1987 41.5142 30.7157 41.3693 31.3066 41.3693C31.6475 41.3693 31.9842 41.4261 32.3166 41.5398C32.649 41.6534 32.9515 41.8381 33.2243 42.0938C33.497 42.3466 33.7143 42.6818 33.8762 43.0994C34.0382 43.517 34.1191 44.0312 34.1191 44.642V45.0682H29.0737V44.1989H33.0964C33.0964 43.8295 33.0225 43.5 32.8748 43.2102C32.7299 42.9205 32.5225 42.6918 32.2527 42.5241C31.9856 42.3565 31.6703 42.2727 31.3066 42.2727C30.9061 42.2727 30.5595 42.3722 30.2669 42.571C29.9771 42.767 29.7541 43.0227 29.5978 43.3381C29.4416 43.6534 29.3635 43.9915 29.3635 44.3523V44.9318C29.3635 45.4261 29.4487 45.8452 29.6191 46.1889C29.7924 46.5298 30.0325 46.7898 30.3393 46.9688C30.6461 47.1449 31.0027 47.233 31.4089 47.233C31.6731 47.233 31.9118 47.196 32.1248 47.1222C32.3407 47.0455 32.5268 46.9318 32.6831 46.7812C32.8393 46.6278 32.96 46.4375 33.0453 46.2102L34.0169 46.483C33.9146 46.8125 33.7427 47.1023 33.5012 47.3523C33.2598 47.5994 32.9615 47.7926 32.6064 47.9318C32.2512 48.0682 31.8521 48.1364 31.4089 48.1364Z" fill="#194ED4"/>
</svg>
