<svg width="32" height="32" viewBox="0 0 32 32" fill="none" xmlns="http://www.w3.org/2000/svg">
<rect width="32" height="32" rx="8" fill="#1E5EFF" fill-opacity="0.08"/>
<path d="M9 16.7596C9 15.4019 9 14.723 9.27446 14.1262C9.54892 13.5295 10.0644 13.0877 11.0953 12.2041L12.0953 11.3469C13.9586 9.7498 14.8902 8.95123 16 8.95123C17.1098 8.95123 18.0414 9.7498 19.9047 11.3469L20.9047 12.2041C21.9356 13.0877 22.4511 13.5295 22.7255 14.1262C23 14.723 23 15.4019 23 16.7596V21C23 22.8856 23 23.8284 22.4142 24.4142C21.8284 25 20.8856 25 19 25H13C11.1144 25 10.1716 25 9.58579 24.4142C9 23.8284 9 22.8856 9 21V16.7596Z" stroke="#1E5EFF" stroke-width="1.5"/>
<path d="M18.5 25V20C18.5 19.4477 18.0523 19 17.5 19H14.5C13.9477 19 13.5 19.4477 13.5 20V25" stroke="#1E5EFF" stroke-width="1.5" stroke-linecap="round" stroke-linejoin="round"/>
</svg>
