<svg width="32" height="32" viewBox="0 0 32 32" fill="none" xmlns="http://www.w3.org/2000/svg">
<rect width="32" height="32" rx="8" fill="#06C270" fill-opacity="0.16"/>
<path d="M15.25 11.847C14.314 12.103 13.75 12.822 13.75 13.5C13.75 14.178 14.314 14.897 15.25 15.152V11.847ZM16.75 16.848V20.152C17.686 19.897 18.25 19.178 18.25 18.5C18.25 17.822 17.686 17.103 16.75 16.848Z" fill="#06C270"/>
<path fill-rule="evenodd" clip-rule="evenodd" d="M26 16C26 21.523 21.523 26 16 26C10.477 26 6 21.523 6 16C6 10.477 10.477 6 16 6C21.523 6 26 10.477 26 16ZM16 9.25C16.1989 9.25 16.3897 9.32902 16.5303 9.46967C16.671 9.61032 16.75 9.80109 16.75 10V10.317C18.38 10.609 19.75 11.834 19.75 13.5C19.75 13.6989 19.671 13.8897 19.5303 14.0303C19.3897 14.171 19.1989 14.25 19 14.25C18.8011 14.25 18.6103 14.171 18.4697 14.0303C18.329 13.8897 18.25 13.6989 18.25 13.5C18.25 12.822 17.686 12.103 16.75 11.847V15.317C18.38 15.609 19.75 16.834 19.75 18.5C19.75 20.166 18.38 21.391 16.75 21.683V22C16.75 22.1989 16.671 22.3897 16.5303 22.5303C16.3897 22.671 16.1989 22.75 16 22.75C15.8011 22.75 15.6103 22.671 15.4697 22.5303C15.329 22.3897 15.25 22.1989 15.25 22V21.683C13.62 21.391 12.25 20.166 12.25 18.5C12.25 18.3011 12.329 18.1103 12.4697 17.9697C12.6103 17.829 12.8011 17.75 13 17.75C13.1989 17.75 13.3897 17.829 13.5303 17.9697C13.671 18.1103 13.75 18.3011 13.75 18.5C13.75 19.178 14.314 19.897 15.25 20.152V16.683C13.62 16.391 12.25 15.166 12.25 13.5C12.25 11.834 13.62 10.609 15.25 10.317V10C15.25 9.80109 15.329 9.61032 15.4697 9.46967C15.6103 9.32902 15.8011 9.25 16 9.25Z" fill="#06C270"/>
</svg>
