<svg width="24" height="28" viewBox="0 0 24 28" fill="none" xmlns="http://www.w3.org/2000/svg">
<path d="M8 3.07942e-07C6.93913 3.07942e-07 5.92172 0.421428 5.17157 1.17157C4.42143 1.92172 4 2.93913 4 4V8.802C4.6185 8.44488 5.29579 8.20105 6 8.082V4C6 3.46957 6.21071 2.96086 6.58579 2.58579C6.96086 2.21071 7.46957 2 8 2H14V7C14 7.79565 14.3161 8.55871 14.8787 9.12132C15.4413 9.68393 16.2044 10 17 10H22V24C22 24.5304 21.7893 25.0391 21.4142 25.4142C21.0391 25.7893 20.5304 26 20 26H15.264C14.8608 26.7547 14.3146 27.4238 13.656 27.97L13.62 28H20C21.0609 28 22.0783 27.5786 22.8284 26.8284C23.5786 26.0783 24 25.0609 24 24V8.828C23.9993 8.03262 23.6828 7.27007 23.12 6.708L17.294 0.878C17.0153 0.599466 16.6844 0.378567 16.3203 0.227918C15.9562 0.0772688 15.566 -0.000178218 15.172 3.07942e-07H8ZM21.586 8H17C16.7348 8 16.4804 7.89464 16.2929 7.70711C16.1054 7.51957 16 7.26522 16 7V2.414L21.586 8ZM11 14C11 15.0609 10.5786 16.0783 9.82843 16.8284C9.07828 17.5786 8.06087 18 7 18C5.93913 18 4.92172 17.5786 4.17157 16.8284C3.42143 16.0783 3 15.0609 3 14C3 12.9391 3.42143 11.9217 4.17157 11.1716C4.92172 10.4214 5.93913 10 7 10C8.06087 10 9.07828 10.4214 9.82843 11.1716C10.5786 11.9217 11 12.9391 11 14ZM14 23C14 25.49 12 28 7 28C2 28 0 25.5 0 23C0 22.2044 0.316071 21.4413 0.87868 20.8787C1.44129 20.3161 2.20435 20 3 20H11C11.7956 20 12.5587 20.3161 13.1213 20.8787C13.6839 21.4413 14 22.2044 14 23Z" fill="#686370" fill-opacity="0.8"/>
</svg>
