<svg width="40" height="40" viewBox="0 0 40 40" fill="none" xmlns="http://www.w3.org/2000/svg">
<rect width="40" height="40" rx="20" fill="#1E5EFF" fill-opacity="0.16"/>
<path d="M14.616 29C14.1713 29 13.791 28.8417 13.475 28.525C13.159 28.2083 13.0007 27.8287 13 27.386V18.616C13 18.172 13.1583 17.792 13.475 17.476C13.7917 17.16 14.1717 17.0013 14.615 17H16V15C16 13.886 16.3883 12.941 17.165 12.165C17.941 11.3883 18.886 11 20 11C21.114 11 22.0593 11.3883 22.836 12.165C23.6127 12.9417 24.0007 13.8867 24 15V17H25.385C25.829 17 26.209 17.1583 26.525 17.475C26.841 17.7917 26.9993 18.1717 27 18.615V27.385C27 27.829 26.8417 28.209 26.525 28.525C26.2083 28.841 25.8283 28.9993 25.385 29H14.616ZM21.066 24.066C21.3553 23.7773 21.5 23.422 21.5 23C21.5 22.578 21.3553 22.2227 21.066 21.934C20.7767 21.6453 20.4213 21.5007 20 21.5C19.5787 21.4993 19.2233 21.644 18.934 21.934C18.6447 22.2227 18.5 22.578 18.5 23C18.5 23.422 18.6447 23.7773 18.934 24.066C19.2227 24.3553 19.578 24.5 20 24.5C20.422 24.5 20.7773 24.3553 21.066 24.066ZM17 17H23V15C23 14.1667 22.7083 13.4583 22.125 12.875C21.5417 12.2917 20.8333 12 20 12C19.1667 12 18.4583 12.2917 17.875 12.875C17.2917 13.4583 17 14.1667 17 15V17Z" fill="#1E5EFF"/>
</svg>
