<svg width="88" height="37" viewBox="0 0 88 37" fill="none" xmlns="http://www.w3.org/2000/svg">
<g clip-path="url(#clip0_433_1838)">
<path fill-rule="evenodd" clip-rule="evenodd" d="M34.8901 36.3358C35.2596 35.9663 35.4672 35.4651 35.4672 34.9425V14.2335C35.4675 13.9333 35.399 13.637 35.2672 13.3672C35.1354 13.0974 34.9437 12.8614 34.7067 12.6769L18.9434 0.41515C18.5975 0.146084 18.1719 0 17.7336 0C17.2953 0 16.8696 0.146084 16.5238 0.41515L0.76058 12.6769C0.52358 12.8614 0.331848 13.0974 0.200023 13.3672C0.0682141 13.637 -0.000207983 13.9333 4.74893e-07 14.2335V34.9425C4.74893e-07 35.4651 0.207592 35.9663 0.577122 36.3358C0.946636 36.7052 1.44781 36.9128 1.9704 36.9128H33.4968C34.0193 36.9128 34.5205 36.7052 34.8901 36.3358ZM23.3486 15.6715C21.8022 14.9025 19.9084 14.4496 17.865 14.4496C15.8216 14.4496 13.9286 14.9025 12.3814 15.6715C11.6229 16.0491 11.2436 16.238 10.8766 16.8314C10.5096 17.4248 10.5088 17.9994 10.5088 19.1477V22.0004C10.5088 26.6453 14.2212 29.2282 16.3717 30.334L16.3765 30.3365C16.9732 30.643 17.2723 30.7967 17.865 30.7967C18.4576 30.7967 18.7567 30.643 19.3534 30.3365L19.3583 30.334C21.5079 29.2274 25.2212 26.6445 25.2212 21.9995V19.1477C25.2212 17.9994 25.2212 17.4248 24.8533 16.8314C24.4855 16.238 24.1071 16.0491 23.3486 15.6715ZM17.2871 21.1576C17.1337 21.0044 17.0476 20.7965 17.0476 20.5797C17.0476 20.3629 17.1337 20.155 17.2871 20.0018C17.4403 19.8485 17.6482 19.7624 17.865 19.7624C18.0818 19.7624 18.2897 19.8485 18.4429 20.0018C18.5962 20.155 18.6823 20.3629 18.6823 20.5797C18.6823 20.7965 18.5962 21.0044 18.4429 21.1576C18.2897 21.311 18.0818 21.3971 17.865 21.3971C17.6482 21.3971 17.4403 21.311 17.2871 21.1576ZM17.865 21.3971L18.478 24.2578H17.252L17.865 21.3971Z" fill="#1E5EFF"/>
<path d="M17.8647 21.3971C18.0814 21.3971 18.2894 21.311 18.4426 21.1578C18.5959 21.0044 18.6821 20.7966 18.6821 20.5799C18.6821 20.3631 18.5959 20.1551 18.4426 20.0018C18.2894 19.8486 18.0814 19.7625 17.8647 19.7625C17.6479 19.7625 17.4399 19.8486 17.2867 20.0018C17.1334 20.1551 17.0474 20.3631 17.0474 20.5799C17.0474 20.7966 17.1334 21.0044 17.2867 21.1578C17.4399 21.311 17.6479 21.3971 17.8647 21.3971ZM17.8647 21.3971L18.4777 24.2578H17.2517L17.8647 21.3971ZM17.8647 20.1712V20.9884" stroke="#1E5EFF" stroke-width="1.22603" stroke-linecap="round" stroke-linejoin="round"/>
<path d="M42.7466 21.9788H40.2388V10.7775H42.7466V15.2246H47.6283V10.7775H50.1362V21.9788H47.6283V17.4648H42.7466V21.9788Z" fill="#1E5EFF"/>
<path d="M55.5487 22.146C52.8403 22.146 51.2354 20.4407 51.2354 17.7825C51.2354 15.1075 52.8403 13.4023 55.5487 13.4023C58.2404 13.4023 59.8119 15.1075 59.8119 17.7825C59.8119 20.4407 58.2404 22.146 55.5487 22.146ZM55.5487 19.9391C56.9029 19.9391 57.371 19.4041 57.371 17.7825C57.371 16.144 56.9029 15.6091 55.5487 15.6091C54.1778 15.6091 53.7097 16.144 53.7097 17.7825C53.7097 19.4041 54.1778 19.9391 55.5487 19.9391Z" fill="#1E5EFF"/>
<path d="M63.4476 21.9788H60.9565V13.5695H63.2804V15.0406H63.3807C63.8321 14.0877 64.7015 13.4023 66.1393 13.4023C67.577 13.4023 68.4464 14.0542 68.8643 15.0406H68.948C69.416 14.1212 70.2521 13.4023 71.8068 13.4023C73.9802 13.4023 74.8663 14.8567 74.8663 16.6456V21.9788H72.3586V17.1471C72.3586 15.9768 72.0074 15.559 70.787 15.559C69.6502 15.559 69.1653 15.9267 69.1653 17.1471V21.9788H66.6575V17.1471C66.6575 15.9768 66.2898 15.559 65.086 15.559C63.9491 15.559 63.4476 15.9267 63.4476 17.1137V21.9788Z" fill="#1E5EFF"/>
<path d="M80.2159 22.146C77.3237 22.146 76.0029 20.4574 76.0029 17.7992C76.0029 15.1075 77.6079 13.4023 80.2327 13.4023C82.7571 13.4023 84.2451 14.9069 84.2451 17.0969C84.2451 17.5651 84.1782 18.05 84.1281 18.3342H78.3603C78.4104 19.5044 78.8785 19.9726 80.2494 19.9726C81.2525 19.9726 81.6872 19.7553 81.6872 19.2369V19.1366H84.1615V19.3038C84.1615 21.0927 82.6234 22.146 80.2159 22.146ZM80.1491 15.4586C78.9453 15.4586 78.4773 15.9267 78.3769 16.8128H81.8377C81.8879 15.9435 81.3194 15.4586 80.1491 15.4586Z" fill="#1E5EFF"/>
<path d="M45.6053 35.6402H43.0975V26.6958H39.4863V24.4388H49.2164V26.6958H45.6053V35.6402Z" fill="#1E5EFF"/>
<path d="M52.0027 35.6402H49.5117V27.2308H51.8356V28.5851H51.9359C52.3538 27.7324 53.1062 27.0637 54.2932 27.0637C56.0486 27.0637 56.7006 28.3677 56.7006 30.0562V30.8253H54.2096V30.3739C54.2096 29.4712 53.9254 29.1868 53.1396 29.1868C52.3706 29.1868 52.0027 29.4544 52.0027 30.3739V35.6402Z" fill="#1E5EFF"/>
<path d="M60.7348 35.8073C58.528 35.8073 57.6084 34.3529 57.6084 32.5641V27.2308H60.0995V32.0625C60.0995 33.2328 60.5008 33.6507 61.7547 33.6507C62.9583 33.6507 63.4766 33.2661 63.4766 31.9956V27.2308H65.9677V35.6402H63.6438V34.169H63.5602C63.0921 35.1386 62.206 35.8073 60.7348 35.8073Z" fill="#1E5EFF"/>
<path d="M71.1657 35.8074C68.5243 35.8074 67.2369 34.8209 67.2369 32.7814V32.7312H69.6277V33.0823C69.6277 33.7008 69.9954 33.8347 71.2159 33.8347C72.2358 33.8347 72.4029 33.6842 72.4029 33.2662C72.4029 32.8148 72.1689 32.7144 71.0487 32.5139L69.7781 32.2798C68.123 31.9789 67.2202 31.2767 67.2202 29.7219C67.2202 28.1671 68.4908 27.0637 70.8815 27.0637C72.938 27.0637 74.5094 28.0334 74.5094 29.9225V30.1566H72.1187V29.9225C72.1187 29.3708 71.8846 29.0698 70.8147 29.0698C69.8116 29.0698 69.5775 29.2872 69.5775 29.6885C69.5775 30.0897 69.7279 30.2067 70.7311 30.4074L72.2691 30.725C74.0413 31.0593 74.777 31.8619 74.777 33.2328C74.777 34.8043 73.4897 35.8074 71.1657 35.8074Z" fill="#1E5EFF"/>
<path d="M79.6761 35.6737C77.486 35.6737 76.4328 34.8711 76.4328 32.8816V29.304H75.0952V27.2308H76.4996L76.9677 25.2748H78.9405V27.2308H81.3145V29.304H78.9405V32.5974C78.9405 33.3331 79.1913 33.4167 80.2779 33.4167H81.3145V35.5065C80.9133 35.59 80.2613 35.6737 79.6761 35.6737Z" fill="#1E5EFF"/>
<path d="M85.988 35.7359C87.0036 35.7359 87.827 34.9126 87.827 33.8969C87.827 32.8812 87.0036 32.0579 85.988 32.0579C84.9723 32.0579 84.1489 32.8812 84.1489 33.8969C84.1489 34.9126 84.9723 35.7359 85.988 35.7359Z" fill="#1E5EFF"/>
</g>
<defs>
<clipPath id="clip0_433_1838">
<rect width="87.8466" height="37" fill="white"/>
</clipPath>
</defs>
</svg>
