<svg width="20" height="20" viewBox="0 0 20 20" fill="none" xmlns="http://www.w3.org/2000/svg">
<path d="M1.96411 6.42833L7.78078 10.3067C8.58328 10.8408 8.98411 11.1083 9.41744 11.2125C9.80078 11.3042 10.1999 11.3042 10.5824 11.2125C11.0158 11.1083 11.4166 10.8408 12.2191 10.3067L18.0358 6.42833M5.96411 16.25H14.0358C15.4358 16.25 16.1358 16.25 16.6708 15.9775C17.1409 15.7377 17.523 15.3553 17.7624 14.885C18.0358 14.35 18.0358 13.65 18.0358 12.25V7.75C18.0358 6.35 18.0358 5.65 17.7633 5.115C17.5236 4.64462 17.1412 4.26218 16.6708 4.0225C16.1358 3.75 15.4358 3.75 14.0358 3.75H5.96411C4.56411 3.75 3.86411 3.75 3.32911 4.0225C2.85904 4.26232 2.47691 4.64474 2.23744 5.115C1.96411 5.65 1.96411 6.35 1.96411 7.75V12.25C1.96411 13.65 1.96411 14.35 2.23661 14.885C2.47629 15.3554 2.85873 15.7378 3.32911 15.9775C3.86411 16.25 4.56411 16.25 5.96411 16.25Z" stroke="#1E5EFF" stroke-width="1.5" stroke-linecap="round" stroke-linejoin="round"/>
</svg>
