<svg xmlns="http://www.w3.org/2000/svg" width="56" height="48" fill="none"><rect width="56" height="48" fill="#1e5eff" fill-opacity=".08" rx="8"/><path stroke="#1e5eff" stroke-linecap="round" stroke-linejoin="round" stroke-width="1.5" d="M35.326 17.778C36 18.787 36 20.19 36 23s0 4.213-.674 5.222a4 4 0 0 1-1.104 1.104c-.881.589-2.064.663-4.222.673V30l-1.106 2.211a1 1 0 0 1-1.788 0L26 30v-.001c-2.158-.01-3.34-.084-4.222-.673a4 4 0 0 1-1.104-1.104C20 27.213 20 25.81 20 23s0-4.213.674-5.222a4 4 0 0 1 1.104-1.104C22.787 16 24.19 16 27 16h2c2.809 0 4.213 0 5.222.674.437.292.812.667 1.104 1.104M25 21h6M25 25h3"/></svg>