<svg xmlns="http://www.w3.org/2000/svg" width="24" height="24" fill="none"><path fill="#9ca3af" d="M12 8.016q.81 0 1.412-.604.603-.603.604-1.412 0-.81-.604-1.412-.603-.604-1.412-.604-.81 0-1.412.604Q9.985 5.19 9.984 6q0 .81.604 1.412.603.604 1.412.604m0 1.968q-.81 0-1.412.604-.603.603-.604 1.412 0 .81.604 1.412.603.603 1.412.604.81 0 1.412-.604.603-.603.604-1.412 0-.81-.604-1.412-.603-.603-1.412-.604m0 6q-.81 0-1.412.604-.603.603-.604 1.412 0 .81.604 1.412.603.604 1.412.604.81 0 1.412-.604.603-.603.604-1.412 0-.81-.604-1.412-.603-.604-1.412-.604"/></svg>