<svg xmlns="http://www.w3.org/2000/svg" width="40" height="40" fill="none"><rect width="40" height="40" fill="#1e5eff" fill-opacity=".08" rx="20"/><path fill="#1e5eff" fill-rule="evenodd" d="M29 12v14h-5v4l-6.1-4H11V12zm-8.956 9.425q-.48 0-.797.313-.317.314-.317.783 0 .492.311.808.31.317.803.317.48 0 .794-.317.313-.316.313-.79 0-.482-.313-.798a1.07 1.07 0 0 0-.794-.316m.433-6.375q-1.306 0-2.607.68l.521 1.3q1.061-.603 1.811-.603.457 0 .724.22a.73.73 0 0 1 .266.594q0 .3-.19.522-.143.166-.541.46l-.629.45q-.08.059-.16.121l-.109.091a1 1 0 0 0-.234.302q-.153.292-.152 1.037v.515h1.728v-.24q0-.533.135-.741t.72-.6l.185-.127q.621-.438.882-.82.3-.435.299-1.052 0-.908-.615-1.476-.698-.633-2.034-.633" clip-rule="evenodd"/></svg>