<svg xmlns="http://www.w3.org/2000/svg" width="24" height="24" fill="none"><path fill="#fff" stroke="#fff" d="M12 3.5c.983 0 1.801.337 2.482 1.019S15.501 6.017 15.5 7c0-.964-.343-1.8-1.021-2.479A3.4 3.4 0 0 0 12 3.5Zm0 0c-.964 0-1.8.343-2.479 1.021A3.4 3.4 0 0 0 8.5 7c0-.922.296-1.698.895-2.353l.124-.128C10.199 3.837 11.017 3.5 12 3.5Zm5.385 6c.31 0 .563.105.786.328.195.196.3.415.324.674l.005.114v8.769c0 .31-.105.563-.328.786a1.06 1.06 0 0 1-.788.329H6.616c-.31 0-.564-.105-.787-.328a1.06 1.06 0 0 1-.324-.673l-.005-.114v-8.769c0-.31.105-.563.328-.786a1.06 1.06 0 0 1 .675-.325l.113-.005zM12 13c-.55 0-1.034.194-1.42.58-.387.386-.581.87-.581 1.42s.194 1.032.58 1.418c.386.388.87.582 1.42.582s1.034-.194 1.42-.581l-.001-.001c.386-.386.581-.868.581-1.418s-.194-1.034-.581-1.42A1.95 1.95 0 0 0 12 13Z"/></svg>