<svg xmlns="http://www.w3.org/2000/svg" width="16" height="16" fill="none"><path fill="#06c270" d="M4.41 14q-.445 0-.76-.317a1.04 1.04 0 0 1-.317-.759V7.077q0-.444.317-.76.316-.315.76-.317h.923V4.667q0-1.114.777-1.89A2.57 2.57 0 0 1 8 2q1.114 0 1.89.777a2.57 2.57 0 0 1 .776 1.89V6h.924q.444 0 .76.317.316.316.316.76v5.846q0 .444-.316.76a1.04 1.04 0 0 1-.76.317zm4.3-3.29A.97.97 0 0 0 9 10a.97.97 0 0 0-.29-.71A.97.97 0 0 0 8 9a.96.96 0 0 0-.711.29.97.97 0 0 0-.29.71q0 .422.29.71.289.29.71.29a.97.97 0 0 0 .711-.29M6 6h4V4.667q0-.834-.584-1.417A1.93 1.93 0 0 0 8 2.667q-.834 0-1.417.583A1.93 1.93 0 0 0 6 4.667z"/></svg>