<svg xmlns="http://www.w3.org/2000/svg" width="32" height="32" fill="none"><rect width="32" height="32" fill="#f5673b" fill-opacity=".16" rx="8"/><path stroke="#f5673b" stroke-width="1.5" d="M17.172 7H13c-1.886 0-2.828 0-3.414.586S9 9.114 9 11v10c0 1.886 0 2.828.586 3.414S11.114 25 13 25h6c1.886 0 2.828 0 3.414-.586S23 22.886 23 21v-8.172c0-.408 0-.613-.076-.796s-.22-.329-.51-.618l-3.828-3.828c-.29-.29-.434-.434-.617-.51C17.784 7 17.58 7 17.172 7Z"/><path stroke="#f5673b" stroke-width="1.5" d="M17 7v4c0 .943 0 1.414.293 1.707S18.057 13 19 13h4"/></svg>