<svg width="32" height="32" viewBox="0 0 32 32" fill="none" xmlns="http://www.w3.org/2000/svg">
<rect width="32" height="32" rx="8" fill="#F5673B" fill-opacity="0.16"/>
<path d="M17.1716 7H13C11.1144 7 10.1716 7 9.58579 7.58579C9 8.17157 9 9.11438 9 11V21C9 22.8856 9 23.8284 9.58579 24.4142C10.1716 25 11.1144 25 13 25H19C20.8856 25 21.8284 25 22.4142 24.4142C23 23.8284 23 22.8856 23 21V12.8284C23 12.4197 23 12.2153 22.9239 12.0315C22.8478 11.8478 22.7032 11.7032 22.4142 11.4142L18.5858 7.58579C18.2968 7.29676 18.1522 7.15224 17.9685 7.07612C17.7847 7 17.5803 7 17.1716 7Z" stroke="#F5673B" stroke-width="1.5"/>
<path d="M17 7V11C17 11.9428 17 12.4142 17.2929 12.7071C17.5858 13 18.0572 13 19 13H23" stroke="#F5673B" stroke-width="1.5"/>
</svg>
