<svg xmlns="http://www.w3.org/2000/svg" width="40" height="40" fill="none"><rect width="40" height="40" fill="#1E5EFF" fill-opacity=".16" rx="20"/><path fill="#1E5EFF" d="M20.532 11.22a.75.75 0 0 0-1.061 0C17.606 13.082 15.545 14 13.25 14a.75.75 0 0 0-.75.75v4.502c0 4.828 2.461 8.11 7.263 9.709a.75.75 0 0 0 .474 0c4.8-1.599 7.263-4.881 7.263-9.71V14.75a.75.75 0 0 0-.75-.75c-2.297 0-4.358-.915-6.218-2.78Zm3.749 6a.75.75 0 0 1 0 1.061l-4.5 4.5a.751.751 0 0 1-1.062 0l-2.25-2.25a.75.75 0 0 1 1.062-1.062l1.719 1.72 3.969-3.968a.749.749 0 0 1 1.062 0Z"/></svg>