<svg width="22" height="22" viewBox="0 0 22 22" fill="none" xmlns="http://www.w3.org/2000/svg">
<path d="M15.1466 11.33C15.3958 11.1165 15.7131 10.9991 16.0413 10.9991C16.3694 10.9991 16.6867 11.1165 16.9359 11.33L20.6026 14.4714C20.9069 14.7326 21.0829 15.1131 21.0829 15.5155V20.1666C21.0829 20.4098 20.9863 20.6429 20.8144 20.8148C20.6425 20.9867 20.4094 21.0833 20.1663 21.0833H18.6382C18.3951 21.0833 18.1619 20.9867 17.99 20.8148C17.8181 20.6429 17.7215 20.4098 17.7215 20.1666V17.4166C17.7215 17.1735 17.6249 16.9404 17.453 16.7685C17.2811 16.5965 17.048 16.5 16.8048 16.5H15.2777C15.0346 16.5 14.8014 16.5965 14.6295 16.7685C14.4576 16.9404 14.361 17.1735 14.361 17.4166V20.1666C14.361 20.4098 14.2644 20.6429 14.0925 20.8148C13.9206 20.9867 13.6875 21.0833 13.4443 21.0833H11.9163C11.6731 21.0833 11.44 20.9867 11.2681 20.8148C11.0962 20.6429 10.9996 20.4098 10.9996 20.1666V15.5155C10.9996 15.3171 11.0425 15.1211 11.1254 14.9408C11.2084 14.7606 11.3293 14.6005 11.4799 14.4714L15.1466 11.33ZM10.8841 13.7747C10.735 13.9043 10.6057 14.0488 10.4963 14.2083H5.73151C5.54933 14.2083 5.3746 14.2806 5.24569 14.4093C5.11679 14.5381 5.04425 14.7127 5.044 14.8949V15.4238C5.044 15.9151 5.22001 16.39 5.53901 16.7631C6.54276 17.9391 8.04517 18.6092 10.0829 18.7596V20.1364C7.64917 19.9751 5.77276 19.1556 4.49309 17.6568C3.96157 17.0342 3.66968 16.2424 3.66992 15.4238V14.8949C3.67016 14.3482 3.88744 13.824 4.27401 13.4374C4.66058 13.0508 5.18481 12.8335 5.73151 12.8333H11.9832L10.8841 13.7747ZM10.9996 1.83789C11.6015 1.83789 12.1975 1.95644 12.7536 2.18678C13.3096 2.41711 13.8149 2.75472 14.2405 3.18032C14.6661 3.60592 15.0037 4.11118 15.234 4.66726C15.4644 5.22333 15.5829 5.81933 15.5829 6.42122C15.5829 7.02312 15.4644 7.61911 15.234 8.17519C15.0037 8.73126 14.6661 9.23653 14.2405 9.66213C13.8149 10.0877 13.3096 10.4253 12.7536 10.6557C12.1975 10.886 11.6015 11.0046 10.9996 11.0046C9.78401 11.0046 8.61822 10.5217 7.75868 9.66213C6.89914 8.80259 6.41626 7.6368 6.41626 6.42122C6.41626 5.20565 6.89914 4.03986 7.75868 3.18032C8.61822 2.32078 9.78401 1.83789 10.9996 1.83789ZM10.9996 3.21289C10.5783 3.21289 10.1611 3.29588 9.77181 3.45711C9.38256 3.61834 9.02888 3.85467 8.73095 4.15259C8.43303 4.45051 8.19671 4.80419 8.03547 5.19345C7.87424 5.5827 7.79125 5.9999 7.79125 6.42122C7.79125 6.84255 7.87424 7.25975 8.03547 7.649C8.19671 8.03825 8.43303 8.39194 8.73095 8.68986C9.02888 8.98778 9.38256 9.2241 9.77181 9.38534C10.1611 9.54657 10.5783 9.62956 10.9996 9.62956C11.8505 9.62956 12.6665 9.29154 13.2682 8.68986C13.8699 8.08818 14.2079 7.27213 14.2079 6.42122C14.2079 5.57032 13.8699 4.75427 13.2682 4.15259C12.6665 3.55091 11.8505 3.21289 10.9996 3.21289Z" fill="#686370" fill-opacity="0.8"/>
<path d="M16.041 11.499C16.2498 11.499 16.4518 11.5741 16.6104 11.71L20.2773 14.8516V14.8506C20.4715 15.0173 20.583 15.2599 20.583 15.5156V20.167C20.5829 20.2773 20.5389 20.3829 20.4609 20.4609C20.3828 20.5391 20.2765 20.583 20.166 20.583H18.6377C18.5274 20.5829 18.4218 20.539 18.3438 20.4609C18.2657 20.3829 18.2218 20.2773 18.2217 20.167V17.417C18.2217 17.0413 18.0723 16.6807 17.8066 16.415C17.541 16.1494 17.1804 16 16.8047 16H15.2773C14.9018 16.0001 14.542 16.1495 14.2764 16.415C14.0107 16.6807 13.8613 17.0413 13.8613 17.417V20.167C13.8612 20.2772 13.8171 20.3829 13.7393 20.4609C13.6611 20.5391 13.5548 20.583 13.4443 20.583H11.916C11.8056 20.5829 11.7001 20.539 11.6221 20.4609C11.544 20.3829 11.5001 20.2774 11.5 20.167V15.5156C11.5 15.3894 11.5273 15.2641 11.5801 15.1494C11.6328 15.0349 11.7099 14.9336 11.8057 14.8516L15.4717 11.71C15.6302 11.5741 15.8323 11.4991 16.041 11.499ZM5.73145 13.333H10.6309L10.5586 13.3945L10.5557 13.3975C10.4452 13.4935 10.3442 13.5975 10.251 13.708H5.73145C5.41682 13.708 5.11521 13.8334 4.89258 14.0557C4.66992 14.278 4.54436 14.5799 4.54395 14.8945V15.4238C4.54395 16.0343 4.76259 16.6237 5.1582 17.0869V17.0879C6.18998 18.2968 7.67691 18.9918 9.58301 19.2129V19.5889C7.51346 19.3567 5.95267 18.5965 4.87305 17.332C4.41896 16.8 4.16971 16.1233 4.16992 15.4238V14.8955C4.17011 14.4813 4.33507 14.0839 4.62793 13.791C4.9207 13.4983 5.31746 13.3333 5.73145 13.333ZM11 2.33789C11.5361 2.33794 12.0672 2.44328 12.5625 2.64844C13.0579 2.85364 13.5076 3.15504 13.8867 3.53418C14.2659 3.91333 14.5673 4.36302 14.7725 4.8584C14.9776 5.35371 15.083 5.88478 15.083 6.4209C15.083 6.95695 14.9775 7.48813 14.7725 7.9834C14.5673 8.47881 14.2659 8.92942 13.8867 9.30859C13.5077 9.68761 13.0577 9.98818 12.5625 10.1934C12.0672 10.3985 11.5361 10.5048 11 10.5049C9.91705 10.5049 8.87807 10.0743 8.1123 9.30859C7.34653 8.54282 6.91602 7.50387 6.91602 6.4209C6.9161 5.3381 7.34668 4.29987 8.1123 3.53418C8.87808 2.76841 9.91703 2.33789 11 2.33789ZM11 2.71289C10.513 2.71289 10.03 2.80876 9.58008 2.99512C9.13029 3.18148 8.72122 3.45456 8.37695 3.79883C8.03267 4.14315 7.75958 4.5521 7.57324 5.00195C7.38692 5.45177 7.29106 5.93402 7.29102 6.4209C7.29102 6.90788 7.38688 7.3909 7.57324 7.84082C7.75952 8.29042 8.03289 8.69879 8.37695 9.04297C8.72125 9.38727 9.13024 9.6613 9.58008 9.84766C10.03 10.034 10.513 10.1299 11 10.1299C11.9834 10.1298 12.9267 9.73832 13.6221 9.04297C14.3173 8.34756 14.708 7.40424 14.708 6.4209C14.7079 5.43753 14.3174 4.49419 13.6221 3.79883C12.9267 3.10348 11.9834 2.713 11 2.71289Z" stroke="#686370" stroke-opacity="0.8"/>
</svg>
