<svg xmlns="http://www.w3.org/2000/svg" width="40" height="40" fill="none"><rect width="40" height="40" fill="#1E5EFF" fill-opacity=".16" rx="20"/><path fill="#1E5EFF" d="M14.616 29c-.445 0-.825-.158-1.141-.475A1.559 1.559 0 0 1 13 27.386v-8.77c0-.444.158-.824.475-1.14a1.563 1.563 0 0 1 1.14-.476H16v-2c0-1.114.388-2.059 1.165-2.835C17.941 11.388 18.886 11 20 11c1.114 0 2.06.388 2.836 1.165.777.777 1.165 1.722 1.164 2.835v2h1.385c.444 0 .824.158 1.14.475.316.317.474.697.475 1.14v8.77c0 .444-.158.824-.475 1.14a1.56 1.56 0 0 1-1.14.475H14.616Zm6.45-4.934c.29-.289.434-.644.434-1.066 0-.422-.145-.777-.434-1.066A1.454 1.454 0 0 0 20 21.5c-.421 0-.777.144-1.066.434-.29.289-.434.644-.434 1.066 0 .422.145.777.434 1.066.289.29.644.434 1.066.434.422 0 .777-.145 1.066-.434ZM17 17h6v-2c0-.833-.292-1.542-.875-2.125A2.893 2.893 0 0 0 20 12c-.833 0-1.542.292-2.125.875A2.893 2.893 0 0 0 17 15v2Z"/></svg>