<svg xmlns="http://www.w3.org/2000/svg" width="32" height="32" fill="none"><rect width="32" height="32" fill="#06c270" fill-opacity=".16" rx="8"/><path fill="#06c270" d="M15.25 11.847c-.936.256-1.5.975-1.5 1.653s.564 1.397 1.5 1.652zm1.5 5.001v3.304c.936-.255 1.5-.974 1.5-1.652s-.564-1.397-1.5-1.652"/><path fill="#06c270" fill-rule="evenodd" d="M26 16c0 5.523-4.477 10-10 10S6 21.523 6 16 10.477 6 16 6s10 4.477 10 10M16 9.25a.75.75 0 0 1 .75.75v.317c1.63.292 3 1.517 3 3.183a.75.75 0 1 1-1.5 0c0-.678-.564-1.397-1.5-1.653v3.47c1.63.292 3 1.517 3 3.183s-1.37 2.891-3 3.183V22a.75.75 0 1 1-1.5 0v-.317c-1.63-.292-3-1.517-3-3.183a.75.75 0 1 1 1.5 0c0 .678.564 1.397 1.5 1.652v-3.469c-1.63-.292-3-1.517-3-3.183s1.37-2.891 3-3.183V10a.75.75 0 0 1 .75-.75" clip-rule="evenodd"/></svg>