<svg xmlns="http://www.w3.org/2000/svg" width="16" height="16" fill="none"><path fill="#1E5EFF" d="M5.409 9.259a.805.805 0 0 1-.242-.592c0-.234.08-.431.242-.592A.802.802 0 0 1 6 7.833a.81.81 0 0 1 .592.242c.162.161.242.358.241.592 0 .233-.081.43-.242.592A.8.8 0 0 1 6 9.5a.807.807 0 0 1-.592-.242m4 0a.804.804 0 0 1-.241-.591c0-.234.08-.431.242-.592A.802.802 0 0 1 10 7.833a.81.81 0 0 1 .592.242c.162.161.242.358.241.592 0 .233-.081.43-.242.592A.8.8 0 0 1 10 9.5a.807.807 0 0 1-.592-.242ZM8 13.333c1.489 0 2.75-.516 3.783-1.55 1.034-1.033 1.55-2.294 1.55-3.783 0-.267-.016-.525-.05-.775A3.237 3.237 0 0 0 13.1 6.5a6.069 6.069 0 0 1-1.433.167 6.525 6.525 0 0 1-2.867-.65A6.655 6.655 0 0 1 6.5 4.2a6.579 6.579 0 0 1-1.525 2.259c-.66.639-1.43 1.12-2.308 1.441V8c0 1.489.516 2.75 1.55 3.783C5.25 12.817 6.51 13.333 8 13.333Zm.002.667c-.83 0-1.61-.157-2.34-.472a6.073 6.073 0 0 1-1.906-1.282 6.047 6.047 0 0 1-1.283-1.905A5.84 5.84 0 0 1 2 8.002c0-.83.158-1.61.473-2.34a6.076 6.076 0 0 1 1.28-1.906 6.041 6.041 0 0 1 1.905-1.283A5.833 5.833 0 0 1 7.998 2c.829 0 1.609.158 2.34.473a6.045 6.045 0 0 1 1.906 1.281c.54.54.967 1.174 1.283 1.905.316.73.474 1.51.473 2.339 0 .83-.158 1.61-.472 2.34a6.013 6.013 0 0 1-1.283 1.906 6.103 6.103 0 0 1-1.904 1.283A5.81 5.81 0 0 1 8.002 14Z"/></svg>