<svg width="9" height="9" viewBox="0 0 9 9" fill="none" xmlns="http://www.w3.org/2000/svg">
<path d="M4.3501 6.83789L6.43604 8.10352C6.62326 8.22053 6.80587 8.21272 6.98389 8.08008C7.16171 7.94758 7.22128 7.77571 7.1626 7.56445L6.62354 5.19727L8.45166 3.60352C8.61659 3.46214 8.6664 3.28832 8.60107 3.08203C8.53548 2.87488 8.39192 2.75964 8.17041 2.73633L5.75635 2.52539L4.81885 0.298828C4.7251 0.0996094 4.56885 0 4.3501 0C4.13135 0 3.9751 0.0996094 3.88135 0.298828L2.94385 2.52539L0.529785 2.73633C0.309017 2.74795 0.165462 2.86025 0.0991211 3.07324C0.0332022 3.28488 0.0830069 3.46163 0.248535 3.60352L2.07666 5.19727L1.5376 7.56445C1.47892 7.77571 1.53849 7.94758 1.71631 8.08008C1.89432 8.21272 2.07694 8.22053 2.26416 8.10352L4.3501 6.83789Z" fill="#EAB308"/>
</svg>
