<svg xmlns="http://www.w3.org/2000/svg" width="40" height="40" fill="none"><rect width="40" height="40" fill="#1E5EFF" fill-opacity=".16" rx="20"/><path fill="#1E5EFF" d="m20.117 13.995-3.328 2.757a1.387 1.387 0 0 0-.24 1.866 1.315 1.315 0 0 0 1.9.275l3.414-2.715a.544.544 0 0 1 .774.099.57.57 0 0 1-.097.791l-.718.57 4.778 4.5V15.5h-.024l-.134-.088-2.496-1.635a3.227 3.227 0 0 0-3.83.218Zm.784 4.374-1.778 1.413a2.4 2.4 0 0 1-3.465-.5c-.763-1.072-.57-2.57.437-3.402l2.86-2.366a3.185 3.185 0 0 0-1.265-.26 3.202 3.202 0 0 0-1.815.559L13.4 15.5v7.875h.97l3.141 2.932c.674.63 1.716.58 2.33-.109.19-.214.317-.464.382-.724l.585.548c.67.63 1.715.584 2.33-.102.155-.172.269-.372.34-.58a1.622 1.622 0 0 0 2.135-.263 1.715 1.715 0 0 0-.1-2.384l-4.612-4.324ZM9.55 15.5a.558.558 0 0 0-.55.563v7.312c0 .622.492 1.125 1.1 1.125h1.1c.608 0 1.1-.503 1.1-1.125V15.5H9.55Zm1.1 6.75c.146 0 .286.06.389.165a.569.569 0 0 1 0 .795.544.544 0 0 1-.778 0 .569.569 0 0 1 0-.795.544.544 0 0 1 .389-.165ZM27.7 15.5v7.875c0 .622.492 1.125 1.1 1.125h1.1c.608 0 1.1-.503 1.1-1.125v-7.313a.558.558 0 0 0-.55-.562H27.7Zm1.1 7.313c0-.15.058-.293.161-.398a.544.544 0 0 1 .778 0 .569.569 0 0 1 0 .795.544.544 0 0 1-.778 0 .569.569 0 0 1-.161-.398Z"/></svg>