<svg xmlns="http://www.w3.org/2000/svg" width="10" height="10" fill="none"><rect width="10" height="10" fill="#06c270" rx="5"/><g clip-path="url(#a)"><path fill="#fff" d="m4.65 5.233-.484-.475a.3.3 0 0 0-.229-.091.325.325 0 0 0-.329.333q0 .141.092.233l.716.717a.32.32 0 0 0 .467 0L6.3 4.533a.3.3 0 0 0 .095-.233.34.34 0 0 0-.333-.337.31.31 0 0 0-.237.095zM3.716 8.25l-.483-.817-.917-.2a.32.32 0 0 1-.2-.129.3.3 0 0 1-.058-.229l.092-.942-.625-.716A.3.3 0 0 1 1.44 5q0-.125.084-.217l.625-.716-.092-.942a.3.3 0 0 1 .058-.23.31.31 0 0 1 .2-.128l.917-.2.483-.817a.33.33 0 0 1 .417-.133L5 1.983l.866-.366a.327.327 0 0 1 .417.133l.483.817.917.2q.125.025.2.129t.058.229l-.091.942.625.716A.3.3 0 0 1 8.558 5a.3.3 0 0 1-.083.217l-.625.716.091.942a.3.3 0 0 1-.058.23.31.31 0 0 1-.2.128l-.917.2-.483.817a.33.33 0 0 1-.417.133L5 8.017l-.867.366a.327.327 0 0 1-.417-.133m.434-.6L5 7.283l.866.367.467-.8.917-.217-.084-.933.617-.7-.617-.717.084-.933-.917-.2-.483-.8-.85.367-.867-.367-.467.8-.916.2.083.933L2.216 5l.617.7-.083.95.916.2z"/></g><defs><clipPath id="a"><path fill="#fff" d="M1 1h8v8H1z"/></clipPath></defs></svg>