<svg xmlns="http://www.w3.org/2000/svg" width="14" height="12" fill="none"><path fill="#1e5eff" d="m11.508 6-1.219-1.406.164-1.828-1.805-.422L7.711.75 6 1.477 4.29.75l-.938 1.594-1.805.398.164 1.852L.492 6l1.219 1.406-.164 1.828 1.805.422.937 1.594L6 10.523l1.71.727.938-1.594 1.805-.422-.164-1.828zm-6.82 2.016-1.196-1.22a.47.47 0 0 1-.14-.342q0-.202.14-.36l.047-.024a.45.45 0 0 1 .352-.158.45.45 0 0 1 .351.158l.797.797L7.617 4.29a.53.53 0 0 1 .363-.14.53.53 0 0 1 .364.14l.023.047q.14.14.14.351t-.14.352L5.414 8.016a.53.53 0 0 1-.363.14.53.53 0 0 1-.364-.14"/></svg>